<?xml version="1.0" standalone="no"?><!DOCTYPE svg PUBLIC "-//W3C//DTD SVG 1.1//EN" "http://www.w3.org/Graphics/SVG/1.1/DTD/svg11.dtd"><svg t="1646133693556" class="icon" viewBox="0 0 1024 1024" version="1.1" xmlns="http://www.w3.org/2000/svg" p-id="10095" width="32" height="32" xmlns:xlink="http://www.w3.org/1999/xlink"><defs><style type="text/css"></style></defs><path d="M903.168 668.8768H118.3744V178.176A39.3216 39.3216 0 0 1 157.696 138.8544h706.1504A39.3216 39.3216 0 0 1 903.168 178.176z" fill="#EBEBFF" p-id="10096"></path><path d="M863.8464 138.6496H157.696A39.3216 39.3216 0 0 0 118.3744 178.176V225.28A39.3216 39.3216 0 0 1 157.696 185.9584h706.1504A39.3216 39.3216 0 0 1 903.168 225.28V178.176a39.3216 39.3216 0 0 0-39.3216-39.5264z" fill="#FFFFFF" p-id="10097"></path><path d="M987.3408 851.7632h-942.08l78.6432-176.9472h784.7936l78.6432 176.9472z" fill="#5CBDFF" p-id="10098"></path><path d="M65.3312 814.8992l-20.0704 45.056h942.08l-20.0704-45.056H65.3312z" fill="#FFFFFF" p-id="10099"></path><path d="M904.3968 691.8144H119.6032a20.48 20.48 0 0 1-20.48-20.48v-491.52A59.8016 59.8016 0 0 1 158.9248 120.832h706.1504a59.8016 59.8016 0 0 1 59.8016 59.8016v491.52a20.48 20.48 0 0 1-20.48 19.6608z m-764.3136-40.96h743.8336v-471.04a18.8416 18.8416 0 0 0-18.8416-18.8416H158.9248a18.8416 18.8416 0 0 0-18.8416 18.8416z" fill="#37348F" p-id="10100"></path><path d="M983.04 868.7616H40.96A20.48 20.48 0 0 1 22.3232 839.68l78.6432-176.9472 37.4784 16.5888-65.9456 148.48h879.0016l-65.7408-148.0704 37.4784-16.5888L1001.6768 839.68a20.48 20.48 0 0 1-18.6368 29.0816z" fill="#37348F" p-id="10101"></path><path d="M962.56 888.4224H61.44a40.96 40.96 0 0 1-40.96-40.96h983.04a40.96 40.96 0 0 1-40.96 40.96zM143.7696 762.88l17.2032-43.008h707.1744l17.2032 43.008H143.7696z" fill="#37348F" p-id="10102"></path><path d="M782.9504 791.9616l-4.096-14.1312h112.4352l6.3488 14.1312h-114.688z" fill="#47E289" p-id="10103"></path><path d="M660.8896 791.9616l-3.8912-14.1312h112.2304l6.3488 14.1312h-114.688z" fill="#FF457A" p-id="10104"></path><path d="M481.28 135.5776m6.144 0l49.152 0q6.144 0 6.144 6.144l0 0q0 6.144-6.144 6.144l-49.152 0q-6.144 0-6.144-6.144l0 0q0-6.144 6.144-6.144Z" fill="#F4D240" p-id="10105"></path></svg>