<?xml version="1.0" standalone="no"?><!DOCTYPE svg PUBLIC "-//W3C//DTD SVG 1.1//EN" "http://www.w3.org/Graphics/SVG/1.1/DTD/svg11.dtd"><svg t="1646221760206" class="icon" viewBox="0 0 1024 1024" version="1.1" xmlns="http://www.w3.org/2000/svg" p-id="1623" width="32" height="32" xmlns:xlink="http://www.w3.org/1999/xlink"><defs><style type="text/css"></style></defs><path d="M148.273766 698.368L20.888166 588.8l34.2016-20.48a99.328 99.328 0 0 1 81.92-9.0112l120.2176 40.96z" fill="#FF457A" p-id="1624"></path><path d="M657.611366 312.9344l-245.76 20.2752-96.4608 62.2592 128.6144 70.8608 213.6064-153.3952z" fill="#5CBDFF" p-id="1625"></path><path d="M995.736166 233.0624c-15.1552-18.0224-86.4256-35.0208-165.888-27.0336-71.2704 7.168-110.3872 24.576-211.5584 98.5088C491.928166 396.6976 129.432166 682.5984 129.432166 682.5984c61.44 63.2832 141.5168 52.4288 225.28 13.5168 24.9856-11.6736 82.944-43.2128 152.576-81.92L558.078566 819.2l109.7728-61.44 80.896-282.624c71.0656-40.96 129.2288-77.2096 150.1184-92.3648 88.8832-64.3072 122.0608-119.808 96.8704-149.7088z" fill="#EBEBFF" p-id="1626"></path><path d="M876.542566 221.5936l-102.4 63.2832 42.1888 37.888 143.36-89.2928a317.44 317.44 0 0 0-83.1488-11.8784z" fill="#47E289" p-id="1627"></path><path d="M649.009766 336.6912C750.385766 262.5536 789.297766 245.76 860.568166 237.9776a339.5584 339.5584 0 0 1 143.36 13.312 33.9968 33.9968 0 0 0-7.7824-18.432c-15.1552-18.0224-86.4256-35.0208-165.888-27.0336-71.2704 7.168-110.3872 24.576-211.5584 98.5088C491.928166 396.6976 129.432166 682.5984 129.432166 682.5984A149.504 149.504 0 0 0 164.248166 710.4512C209.099366 675.84 531.864166 422.2976 649.009766 336.6912zM537.188966 645.9392l-20.48 11.0592 40.96 163.84 20.48-11.264z" fill="#FFFFFF" p-id="1628"></path><path d="M758.372966 296.3456l-50.3808 30.9248 42.3936 38.0928 50.9952-31.744-43.008-37.2736zM693.246566 338.7392l-27.648 17.408 42.1888 38.0928 28.4672-18.2272-43.008-37.2736z" fill="#F4D240" p-id="1629"></path><path d="M1011.505766 219.9552c-22.528-26.8288-104.8576-42.1888-184.32-34.2016s-119.3984 27.8528-221.5936 102.4l-13.1072 9.6256-182.4768 14.9504a20.48 20.48 0 0 0-9.4208 3.2768l-96.4608 61.44a20.48 20.48 0 0 0 1.2288 35.2256l79.2576 43.6224-146.432 114.0736L143.768166 539.648a120.0128 120.0128 0 0 0-99.5328 10.8544l-34.2016 20.48a20.48 20.48 0 0 0-2.8672 33.1776L114.276966 696.32c58.7776 61.44 142.336 67.584 248.0128 18.0224 27.0336-12.6976 86.4256-45.2608 130.4576-69.632l45.056 180.0192a20.48 20.48 0 0 0 29.9008 12.9024l109.7728-61.44a20.48 20.48 0 0 0 9.6256-12.288l78.6432-275.0464c54.0672-31.9488 120.4224-71.68 144.7936-89.2928 48.128-35.0208 106.9056-86.8352 113.0496-135.3728a56.1152 56.1152 0 0 0-12.0832-44.2368z m-655.36 174.2848l63.2832-40.96 113.2544-9.216c-34.6112 24.576-73.1136 55.0912-112.8448 86.016zM65.739366 585.728a78.848 78.848 0 0 1 65.536-7.168l68.4032 22.7328L130.251366 655.36 55.704166 591.6672z m584.704 158.5152l-79.0528 44.4416L516.504166 569.344s-135.3728 72.4992-200.4992 99.328a315.8016 315.8016 0 0 1-154.4192 14.9504c76.5952-60.2112 361.6768-283.648 469.1968-362.496 102.4-74.9568 136.8064-88.064 201.5232-94.6176 76.3904-7.7824 135.3728 9.0112 146.8416 18.6368-10.4448 20.48-45.4656 49.3568-72.9088 71.2704-34.4064 27.648-163.84 110.592-163.84 110.592z" fill="#37348F" p-id="1630"></path></svg>